<svg width="258" height="228" viewBox="0 0 258 228" fill="none" xmlns="http://www.w3.org/2000/svg">
<g opacity="0.05" clip-path="url(#clip0_212_575)">
<mask id="path-1-inside-1_212_575" fill="white">
<path d="M209.355 68.076C216.276 68.0359 223.064 66.1651 229.029 62.6536C233.533 60.1043 237.466 56.6585 240.585 52.5292C243.705 48.3999 245.944 43.6747 247.165 38.6458C247.416 37.5358 247.236 36.3722 246.664 35.3891C246.091 34.406 245.167 33.6763 244.078 33.347C239.1 31.9299 233.885 31.5486 228.755 32.2267C223.624 32.9048 218.687 34.6278 214.249 37.2894C210.345 39.5581 206.854 42.4714 203.922 45.9058C203.065 41.4728 201.464 37.2169 199.186 33.3187C196.637 28.8149 193.191 24.8817 189.062 21.7623C184.933 18.6429 180.207 16.4034 175.178 15.1824C174.068 14.9319 172.905 15.1111 171.922 15.684C170.939 16.2569 170.209 17.1808 169.88 18.27C168.463 23.2473 168.082 28.4624 168.76 33.5929C169.438 38.7234 171.161 43.6603 173.823 48.0986C178.221 55.7865 185.138 61.7213 193.404 64.9014C191.942 72.8296 189.682 86.7789 187.807 105.705C186.189 102.757 184.275 99.9817 182.094 97.4214C173.554 87.3945 161.602 81.3324 149.304 80.789C148.168 80.7395 147.055 81.122 146.189 81.8597C145.323 82.5974 144.768 83.6356 144.636 84.7655C143.216 96.994 147.3 109.757 155.84 119.784C163.339 128.768 173.938 134.608 185.538 136.149C185.004 146.604 184.656 158.162 184.637 170.644C182.92 168.14 180.976 165.799 178.83 163.65C169.517 154.337 157.127 149.257 144.818 149.687C143.681 149.728 142.601 150.198 141.796 151.003C140.992 151.807 140.522 152.887 140.481 154.024C140.041 166.326 145.131 178.723 154.444 188.037C162.619 196.378 173.622 201.353 185.284 201.98C185.657 210.706 186.217 219.725 186.964 229.036H73.0355C73.7965 219.736 74.3565 210.717 74.7155 201.98C86.3773 201.352 97.3806 196.377 105.555 188.037C114.869 178.723 119.958 166.326 119.518 154.024C119.478 152.887 119.008 151.807 118.203 151.003C117.399 150.198 116.319 149.728 115.182 149.687C102.881 149.256 90.4827 154.337 81.1692 163.65C79.0236 165.799 77.0798 168.14 75.3623 170.644C75.3431 158.162 74.996 146.604 74.4615 136.149C86.062 134.609 96.6611 128.768 104.16 119.784C112.7 109.758 116.784 96.994 115.364 84.7659C115.233 83.6354 114.679 82.5965 113.812 81.8586C112.946 81.1206 111.832 80.7386 110.695 80.7894C98.3975 81.3328 86.4453 87.3948 77.9053 97.4217C75.725 99.982 73.8111 102.758 72.1931 105.706C70.3173 86.7792 68.0573 72.8299 66.5953 64.9017C74.862 61.7216 81.7785 55.7868 86.1772 48.0989C88.8386 43.6605 90.5617 38.7235 91.2398 33.593C91.9179 28.4624 91.5366 23.2473 90.1197 18.27C89.7905 17.1807 89.0609 16.2565 88.0778 15.6836C87.0946 15.1106 85.9309 14.9314 84.8209 15.1821C79.7918 16.4031 75.0666 18.6426 70.9373 21.762C66.808 24.8814 63.3622 28.8146 60.8131 33.3184C58.5351 37.2166 56.9337 41.4725 56.0768 45.9055C53.1455 42.4711 49.6539 39.5578 45.7501 37.2891C41.3117 34.6276 36.3748 32.9047 31.2443 32.2266C26.1139 31.5485 20.8988 31.9297 15.9215 33.3467C14.8324 33.676 13.9084 34.4057 13.3356 35.3888C12.7628 36.3719 12.5836 37.5355 12.8341 38.6455C14.0551 43.6745 16.2944 48.3997 19.4137 52.529C22.533 56.6584 26.466 60.1042 30.9697 62.6536C36.9344 66.1653 43.7223 68.0361 50.644 68.076C53.0749 68.0739 55.4992 67.8223 57.8788 67.325C59.2809 75.0589 61.378 88.1691 63.1302 105.519C61.2392 103.197 59.1418 101.05 56.8638 99.1062C46.8369 90.5662 34.0771 86.4832 21.8452 87.9022C20.7149 88.0333 19.6762 88.5877 18.9384 89.454C18.2005 90.3202 17.8182 91.4338 17.8686 92.5706C18.4126 104.869 24.4751 116.82 34.5015 125.361C42.8939 132.642 53.597 136.71 64.707 136.841C64.9662 136.841 65.225 136.824 65.4841 136.819C66.0155 147.277 66.3563 158.855 66.3627 171.368C64.5265 168.59 62.4151 166.005 60.0605 163.65C50.748 154.337 38.3559 149.257 26.0478 149.688C24.9106 149.728 23.8311 150.198 23.0265 151.003C22.2219 151.807 21.752 152.887 21.7114 154.024C21.2714 166.325 26.3608 178.723 35.6743 188.037C43.6583 196.175 54.3376 201.12 65.7084 201.944C65.3302 210.677 64.7615 219.708 64.0024 229.036H38.5148C37.383 229.036 36.2928 229.462 35.4614 230.23C34.6301 230.998 34.1186 232.051 34.029 233.179L31.8239 260.912C29.179 293.565 39.1623 325.988 59.716 351.497L72.3674 367.247C72.7891 367.772 73.3232 368.195 73.9304 368.486C74.5376 368.777 75.2023 368.928 75.8757 368.928H184.124C184.797 368.928 185.462 368.777 186.069 368.486C186.676 368.195 187.21 367.772 187.632 367.247L200.283 351.497C220.837 325.988 230.82 293.565 228.175 260.912L225.97 233.18C225.881 232.052 225.369 230.999 224.538 230.231C223.707 229.463 222.616 229.036 221.485 229.036H195.996C195.225 219.744 194.656 210.713 194.288 201.944C205.66 201.121 216.34 196.176 224.325 188.037C233.638 178.723 238.728 166.326 238.288 154.025C238.247 152.888 237.777 151.808 236.973 151.003C236.168 150.199 235.088 149.729 233.951 149.688C221.651 149.257 209.252 154.338 199.939 163.651C197.585 166.004 195.474 168.588 193.639 171.365C193.65 159.031 193.992 147.477 194.542 136.821C194.792 136.825 195.042 136.842 195.292 136.842C206.402 136.71 217.105 132.642 225.497 125.361C235.524 116.821 241.586 104.869 242.13 92.5712C242.18 91.4344 241.798 90.3208 241.06 89.4546C240.322 88.5883 239.284 88.0339 238.153 87.9028C225.925 86.4819 213.162 90.5668 203.135 99.1069C200.877 101.034 198.797 103.159 196.92 105.458C198.671 88.0987 200.744 75.0356 202.13 67.3276C204.506 67.8234 206.927 68.0742 209.355 68.076ZM87.5334 170.014C93.6382 163.775 101.704 159.826 110.376 158.83C109.288 167.475 105.352 175.512 99.1912 181.673C93.0299 187.834 84.9932 191.769 76.3483 192.857C77.3451 184.185 81.2943 176.12 87.5334 170.014ZM84.7565 103.258C90.3446 96.5512 98.0693 91.971 106.634 90.2855C106.239 98.9897 102.958 107.315 97.3078 113.948C91.6579 120.581 83.9608 125.145 75.4304 126.92C75.7315 118.196 79.0244 109.841 84.7565 103.258ZM68.5897 37.85C71.744 32.3139 76.5967 27.9403 82.4297 25.3764C83.0121 31.7117 81.6036 38.0709 78.4003 43.5676C75.1971 49.0644 70.3588 53.4249 64.5597 56.0414C63.9148 49.7021 65.3278 43.3237 68.5897 37.85ZM35.5014 54.8774C29.9654 51.7226 25.592 46.8696 23.0282 41.0365C29.3634 40.4541 35.7225 41.8627 41.2192 45.0659C46.7159 48.2692 51.0763 53.1074 53.6928 58.9065C47.3535 59.5526 40.9749 58.1399 35.5014 54.8774ZM40.3378 118.509C33.6313 112.921 29.051 105.196 27.3656 96.6313C36.0699 97.0266 44.3949 100.308 51.0281 105.958C57.6614 111.608 62.2253 119.305 64.0004 127.835C55.2762 127.534 46.9213 124.241 40.3378 118.509ZM42.039 181.673C35.7999 175.568 31.8505 167.502 30.8537 158.83C39.4986 159.918 47.5353 163.853 53.6965 170.015C59.8577 176.176 63.7929 184.212 64.8815 192.857C56.2093 191.861 48.1441 187.912 42.039 181.673ZM193.267 345.861L181.967 359.929H78.0329L66.7329 345.861C48.52 323.255 39.2057 294.768 40.5461 265.769H219.454C220.794 294.768 211.48 323.255 193.267 345.861ZM218.818 256.769H41.1817L42.6711 238.036H68.1297H68.1406H68.1458H191.854H191.859H191.87H217.328L218.818 256.769ZM208.972 105.958C215.555 100.225 223.91 96.9324 232.634 96.6313C230.859 105.162 226.295 112.859 219.662 118.509C213.029 124.159 204.704 127.44 196 127.835C197.685 119.27 202.265 111.546 208.972 105.958ZM218.781 45.0658C224.254 41.8042 230.633 40.3916 236.972 41.037C234.355 46.8361 229.995 51.6744 224.498 54.8775C219.001 58.0806 212.642 59.4889 206.307 58.9062C208.871 53.0731 213.245 48.2204 218.781 45.0658ZM181.599 43.5678C178.337 38.0939 176.925 31.7154 177.57 25.3763C183.369 27.9927 188.207 32.3532 191.41 37.85C194.614 43.3468 196.022 49.7059 195.44 56.0413C189.606 53.4776 184.753 49.104 181.599 43.5678ZM162.692 113.948C156.96 107.364 153.666 99.0093 153.365 90.2852C161.896 92.06 169.593 96.6239 175.243 103.257C180.893 109.89 184.174 118.216 184.569 126.92C176.004 125.234 168.28 120.654 162.692 113.948ZM160.808 181.672C154.569 175.567 150.62 167.502 149.623 158.83C158.268 159.918 166.305 163.854 172.466 170.015C178.627 176.176 182.562 184.212 183.651 192.857C174.979 191.861 166.914 187.911 160.808 181.672ZM206.303 170.014C212.408 163.775 220.474 159.826 229.146 158.83C228.057 167.475 224.122 175.512 217.961 181.673C211.799 187.834 203.763 191.769 195.118 192.857C196.115 184.185 200.064 176.119 206.303 170.014Z"/>
</mask>
<path d="M209.355 68.076C216.276 68.0359 223.064 66.1651 229.029 62.6536C233.533 60.1043 237.466 56.6585 240.585 52.5292C243.705 48.3999 245.944 43.6747 247.165 38.6458C247.416 37.5358 247.236 36.3722 246.664 35.3891C246.091 34.406 245.167 33.6763 244.078 33.347C239.1 31.9299 233.885 31.5486 228.755 32.2267C223.624 32.9048 218.687 34.6278 214.249 37.2894C210.345 39.5581 206.854 42.4714 203.922 45.9058C203.065 41.4728 201.464 37.2169 199.186 33.3187C196.637 28.8149 193.191 24.8817 189.062 21.7623C184.933 18.6429 180.207 16.4034 175.178 15.1824C174.068 14.9319 172.905 15.1111 171.922 15.684C170.939 16.2569 170.209 17.1808 169.88 18.27C168.463 23.2473 168.082 28.4624 168.76 33.5929C169.438 38.7234 171.161 43.6603 173.823 48.0986C178.221 55.7865 185.138 61.7213 193.404 64.9014C191.942 72.8296 189.682 86.7789 187.807 105.705C186.189 102.757 184.275 99.9817 182.094 97.4214C173.554 87.3945 161.602 81.3324 149.304 80.789C148.168 80.7395 147.055 81.122 146.189 81.8597C145.323 82.5974 144.768 83.6356 144.636 84.7655C143.216 96.994 147.3 109.757 155.84 119.784C163.339 128.768 173.938 134.608 185.538 136.149C185.004 146.604 184.656 158.162 184.637 170.644C182.92 168.14 180.976 165.799 178.83 163.65C169.517 154.337 157.127 149.257 144.818 149.687C143.681 149.728 142.601 150.198 141.796 151.003C140.992 151.807 140.522 152.887 140.481 154.024C140.041 166.326 145.131 178.723 154.444 188.037C162.619 196.378 173.622 201.353 185.284 201.98C185.657 210.706 186.217 219.725 186.964 229.036H73.0355C73.7965 219.736 74.3565 210.717 74.7155 201.98C86.3773 201.352 97.3806 196.377 105.555 188.037C114.869 178.723 119.958 166.326 119.518 154.024C119.478 152.887 119.008 151.807 118.203 151.003C117.399 150.198 116.319 149.728 115.182 149.687C102.881 149.256 90.4827 154.337 81.1692 163.65C79.0236 165.799 77.0798 168.14 75.3623 170.644C75.3431 158.162 74.996 146.604 74.4615 136.149C86.062 134.609 96.6611 128.768 104.16 119.784C112.7 109.758 116.784 96.994 115.364 84.7659C115.233 83.6354 114.679 82.5965 113.812 81.8586C112.946 81.1206 111.832 80.7386 110.695 80.7894C98.3975 81.3328 86.4453 87.3948 77.9053 97.4217C75.725 99.982 73.8111 102.758 72.1931 105.706C70.3173 86.7792 68.0573 72.8299 66.5953 64.9017C74.862 61.7216 81.7785 55.7868 86.1772 48.0989C88.8386 43.6605 90.5617 38.7235 91.2398 33.593C91.9179 28.4624 91.5366 23.2473 90.1197 18.27C89.7905 17.1807 89.0609 16.2565 88.0778 15.6836C87.0946 15.1106 85.9309 14.9314 84.8209 15.1821C79.7918 16.4031 75.0666 18.6426 70.9373 21.762C66.808 24.8814 63.3622 28.8146 60.8131 33.3184C58.5351 37.2166 56.9337 41.4725 56.0768 45.9055C53.1455 42.4711 49.6539 39.5578 45.7501 37.2891C41.3117 34.6276 36.3748 32.9047 31.2443 32.2266C26.1139 31.5485 20.8988 31.9297 15.9215 33.3467C14.8324 33.676 13.9084 34.4057 13.3356 35.3888C12.7628 36.3719 12.5836 37.5355 12.8341 38.6455C14.0551 43.6745 16.2944 48.3997 19.4137 52.529C22.533 56.6584 26.466 60.1042 30.9697 62.6536C36.9344 66.1653 43.7223 68.0361 50.644 68.076C53.0749 68.0739 55.4992 67.8223 57.8788 67.325C59.2809 75.0589 61.378 88.1691 63.1302 105.519C61.2392 103.197 59.1418 101.05 56.8638 99.1062C46.8369 90.5662 34.0771 86.4832 21.8452 87.9022C20.7149 88.0333 19.6762 88.5877 18.9384 89.454C18.2005 90.3202 17.8182 91.4338 17.8686 92.5706C18.4126 104.869 24.4751 116.82 34.5015 125.361C42.8939 132.642 53.597 136.71 64.707 136.841C64.9662 136.841 65.225 136.824 65.4841 136.819C66.0155 147.277 66.3563 158.855 66.3627 171.368C64.5265 168.59 62.4151 166.005 60.0605 163.65C50.748 154.337 38.3559 149.257 26.0478 149.688C24.9106 149.728 23.8311 150.198 23.0265 151.003C22.2219 151.807 21.752 152.887 21.7114 154.024C21.2714 166.325 26.3608 178.723 35.6743 188.037C43.6583 196.175 54.3376 201.12 65.7084 201.944C65.3302 210.677 64.7615 219.708 64.0024 229.036H38.5148C37.383 229.036 36.2928 229.462 35.4614 230.23C34.6301 230.998 34.1186 232.051 34.029 233.179L31.8239 260.912C29.179 293.565 39.1623 325.988 59.716 351.497L72.3674 367.247C72.7891 367.772 73.3232 368.195 73.9304 368.486C74.5376 368.777 75.2023 368.928 75.8757 368.928H184.124C184.797 368.928 185.462 368.777 186.069 368.486C186.676 368.195 187.21 367.772 187.632 367.247L200.283 351.497C220.837 325.988 230.82 293.565 228.175 260.912L225.97 233.18C225.881 232.052 225.369 230.999 224.538 230.231C223.707 229.463 222.616 229.036 221.485 229.036H195.996C195.225 219.744 194.656 210.713 194.288 201.944C205.66 201.121 216.34 196.176 224.325 188.037C233.638 178.723 238.728 166.326 238.288 154.025C238.247 152.888 237.777 151.808 236.973 151.003C236.168 150.199 235.088 149.729 233.951 149.688C221.651 149.257 209.252 154.338 199.939 163.651C197.585 166.004 195.474 168.588 193.639 171.365C193.65 159.031 193.992 147.477 194.542 136.821C194.792 136.825 195.042 136.842 195.292 136.842C206.402 136.71 217.105 132.642 225.497 125.361C235.524 116.821 241.586 104.869 242.13 92.5712C242.18 91.4344 241.798 90.3208 241.06 89.4546C240.322 88.5883 239.284 88.0339 238.153 87.9028C225.925 86.4819 213.162 90.5668 203.135 99.1069C200.877 101.034 198.797 103.159 196.92 105.458C198.671 88.0987 200.744 75.0356 202.13 67.3276C204.506 67.8234 206.927 68.0742 209.355 68.076ZM87.5334 170.014C93.6382 163.775 101.704 159.826 110.376 158.83C109.288 167.475 105.352 175.512 99.1912 181.673C93.0299 187.834 84.9932 191.769 76.3483 192.857C77.3451 184.185 81.2943 176.12 87.5334 170.014ZM84.7565 103.258C90.3446 96.5512 98.0693 91.971 106.634 90.2855C106.239 98.9897 102.958 107.315 97.3078 113.948C91.6579 120.581 83.9608 125.145 75.4304 126.92C75.7315 118.196 79.0244 109.841 84.7565 103.258ZM68.5897 37.85C71.744 32.3139 76.5967 27.9403 82.4297 25.3764C83.0121 31.7117 81.6036 38.0709 78.4003 43.5676C75.1971 49.0644 70.3588 53.4249 64.5597 56.0414C63.9148 49.7021 65.3278 43.3237 68.5897 37.85ZM35.5014 54.8774C29.9654 51.7226 25.592 46.8696 23.0282 41.0365C29.3634 40.4541 35.7225 41.8627 41.2192 45.0659C46.7159 48.2692 51.0763 53.1074 53.6928 58.9065C47.3535 59.5526 40.9749 58.1399 35.5014 54.8774ZM40.3378 118.509C33.6313 112.921 29.051 105.196 27.3656 96.6313C36.0699 97.0266 44.3949 100.308 51.0281 105.958C57.6614 111.608 62.2253 119.305 64.0004 127.835C55.2762 127.534 46.9213 124.241 40.3378 118.509ZM42.039 181.673C35.7999 175.568 31.8505 167.502 30.8537 158.83C39.4986 159.918 47.5353 163.853 53.6965 170.015C59.8577 176.176 63.7929 184.212 64.8815 192.857C56.2093 191.861 48.1441 187.912 42.039 181.673ZM193.267 345.861L181.967 359.929H78.0329L66.7329 345.861C48.52 323.255 39.2057 294.768 40.5461 265.769H219.454C220.794 294.768 211.48 323.255 193.267 345.861ZM218.818 256.769H41.1817L42.6711 238.036H68.1297H68.1406H68.1458H191.854H191.859H191.87H217.328L218.818 256.769ZM208.972 105.958C215.555 100.225 223.91 96.9324 232.634 96.6313C230.859 105.162 226.295 112.859 219.662 118.509C213.029 124.159 204.704 127.44 196 127.835C197.685 119.27 202.265 111.546 208.972 105.958ZM218.781 45.0658C224.254 41.8042 230.633 40.3916 236.972 41.037C234.355 46.8361 229.995 51.6744 224.498 54.8775C219.001 58.0806 212.642 59.4889 206.307 58.9062C208.871 53.0731 213.245 48.2204 218.781 45.0658ZM181.599 43.5678C178.337 38.0939 176.925 31.7154 177.57 25.3763C183.369 27.9927 188.207 32.3532 191.41 37.85C194.614 43.3468 196.022 49.7059 195.44 56.0413C189.606 53.4776 184.753 49.104 181.599 43.5678ZM162.692 113.948C156.96 107.364 153.666 99.0093 153.365 90.2852C161.896 92.06 169.593 96.6239 175.243 103.257C180.893 109.89 184.174 118.216 184.569 126.92C176.004 125.234 168.28 120.654 162.692 113.948ZM160.808 181.672C154.569 175.567 150.62 167.502 149.623 158.83C158.268 159.918 166.305 163.854 172.466 170.015C178.627 176.176 182.562 184.212 183.651 192.857C174.979 191.861 166.914 187.911 160.808 181.672ZM206.303 170.014C212.408 163.775 220.474 159.826 229.146 158.83C228.057 167.475 224.122 175.512 217.961 181.673C211.799 187.834 203.763 191.769 195.118 192.857C196.115 184.185 200.064 176.119 206.303 170.014Z" fill="#121212" stroke="#F8F8F8" stroke-width="4" mask="url(#path-1-inside-1_212_575)"/>
</g>
<defs>
<clipPath id="clip0_212_575">
<rect width="258" height="228" fill="white"/>
</clipPath>
</defs>
</svg>
