<?xml version="1.0" encoding="utf-8"?>
<!-- Generator: Adobe Illustrator 25.4.1, SVG Export Plug-In . SVG Version: 6.00 Build 0)  -->
<svg version="1.1" id="Слой_1" xmlns="http://www.w3.org/2000/svg" xmlns:xlink="http://www.w3.org/1999/xlink" x="0px" y="0px"
	 viewBox="0 0 176 197" style="enable-background:new 0 0 176 197;" xml:space="preserve">
<style type="text/css">
	.st0{opacity:5.000000e-02;}
	.st1{clip-path:url(#SVGID_00000134966238412468858030000014092563891869485447_);}
	.st2{clip-path:url(#SVGID_00000141429023941538747020000015815071304074735806_);fill:#121212;}
	.st3{clip-path:url(#SVGID_00000141429023941538747020000015815071304074735806_);}
	.st4{clip-path:url(#SVGID_00000011720629457892373900000002646884637287749532_);fill:#F8F8F8;}
</style>
<g class="st0">
	<g>
		<defs>
			<rect id="SVGID_1_" width="176" height="197"/>
		</defs>
		<clipPath id="SVGID_00000060030898586719564940000013382350059659114134_">
			<use xlink:href="#SVGID_1_"  style="overflow:visible;"/>
		</clipPath>
		<g style="clip-path:url(#SVGID_00000060030898586719564940000013382350059659114134_);">
			<defs>
				<rect id="SVGID_00000048471521668399929150000008919141694487436976_" width="176" height="197"/>
			</defs>
			<clipPath id="SVGID_00000048497305620799903100000012131608558267378344_">
				<use xlink:href="#SVGID_00000048471521668399929150000008919141694487436976_"  style="overflow:visible;"/>
			</clipPath>
			<path style="clip-path:url(#SVGID_00000048497305620799903100000012131608558267378344_);fill:#121212;" d="M132.2,126.3h-18.6
				V94.9c12.8-18.2,31.9-28.9,44.1-34.3C143.9,79.5,135.5,111.4,132.2,126.3z M140.9,220c-0.2,0-0.4-0.1-0.5-0.1H42.5
				c-0.2,0-0.3,0-0.4,0c-3.3-11.1-5-22.7-5-34.3c0-18.5,4.3-36.8,12.6-53.4h83.7c8.3,16.6,12.7,34.8,12.6,53.4
				C145.9,197.3,144.3,208.9,140.9,220z M134.5,236.8c-0.3,0.7-0.9,1.3-1.5,1.7c-0.7,0.4-1.4,0.6-2.2,0.6H52.2
				c-0.8,0-1.5-0.2-2.2-0.6c-0.7-0.4-1.2-1-1.5-1.7c-1.7-3.5-3.2-7.1-4.5-10.8H139C137.7,229.7,136.1,233.3,134.5,236.8z M70.2,94.6
				c-0.5,5.4-0.7,10.9-0.7,16.6c0,5.2,0.2,10.2,0.6,15.1H51.8c-3.4-14.9-11.8-46.8-25.6-65.7C38.4,66,57.3,76.6,70.2,94.6z
				 M56.3,43.3c6.5,6.1,12.7,15.3,17.9,26.2c-1.3,5.4-2.4,10.9-3.1,16.5C65.8,79.6,59.7,73.9,53,69C52.9,59.2,54,50.4,56.3,43.3z
				 M91.5,43.1c10,15.2,16.1,40.7,16.1,68c0,5.1-0.2,10.2-0.6,15.1H76.1c-0.4-5-0.6-10-0.6-15.1C75.5,83.8,81.5,58.3,91.5,43.1z
				 M126.7,43.3c2.4,7.3,3.5,16.4,3.4,26.4c-6.7,5-12.7,10.8-18,17.3c-0.8-5.9-1.8-11.7-3.3-17.5C114,58.6,120.2,49.4,126.7,43.3z
				 M171.5,51.8c-0.3-0.6-0.8-1.1-1.5-1.4c-0.6-0.3-1.4-0.3-2-0.2c-11.3,3.5-22.1,8.6-31.9,15.2c-0.2-11-2-20.7-5.4-28.4
				c-0.2-0.4-0.5-0.8-0.8-1.1c-0.3-0.3-0.8-0.5-1.2-0.6s-0.9-0.1-1.4,0c-0.4,0.1-0.9,0.3-1.2,0.6c-7.2,5.6-14,14.3-19.8,25
				c-3.2-9.9-7.4-18.4-12.5-24.9c-0.3-0.4-0.6-0.7-1.1-0.9c-0.4-0.2-0.9-0.3-1.3-0.3s-0.9,0.1-1.3,0.3c-0.4,0.2-0.8,0.5-1.1,0.9
				c-5,6.5-9.2,15-12.5,24.9c-5.8-10.8-12.6-19.5-19.8-25c-0.4-0.3-0.8-0.5-1.2-0.6c-0.4-0.1-0.9-0.1-1.4,0
				c-0.4,0.1-0.9,0.3-1.2,0.6c-0.3,0.3-0.6,0.7-0.8,1.1c-3.3,7.5-5.1,17-5.3,27.8c-9.6-6.3-20-11.2-31-14.6c-0.7-0.2-1.4-0.1-2,0.2
				c-0.6,0.3-1.2,0.8-1.5,1.4c-0.3,0.6-0.4,1.3-0.2,2c0.2,0.7,0.6,1.3,1.1,1.7c17.4,13.1,28.3,53.4,32.4,71.2l-0.6,1.1
				c-8.9,17.2-13.8,36.2-14.1,55.5c-0.4,19.3,3.8,38.5,12.1,56c0.8,1.7,2.1,3.1,3.7,4.1c1.6,1,3.5,1.5,5.4,1.5h78.6
				c1.9,0,3.8-0.5,5.4-1.5s2.9-2.4,3.7-4.1c8.3-17.4,12.4-36.6,12.1-55.9c-0.3-19.3-5.1-38.3-14-55.4c3.8-17,14.9-59.1,32.7-72.6
				c0.6-0.4,1-1,1.1-1.7S171.9,52.4,171.5,51.8z"/>
			<g style="clip-path:url(#SVGID_00000048497305620799903100000012131608558267378344_);">
				<defs>
					<path id="SVGID_00000042706560907737391810000003880867091220111536_" d="M132.2,126.3h-18.6V94.9
						c12.8-18.2,31.9-28.9,44.1-34.3C143.9,79.5,135.5,111.4,132.2,126.3z M140.9,220c-0.2,0-0.4-0.1-0.5-0.1H42.5
						c-0.2,0-0.3,0-0.4,0c-3.3-11.1-5-22.7-5-34.3c0-18.5,4.3-36.8,12.6-53.4h83.7c8.3,16.6,12.7,34.8,12.6,53.4
						C145.9,197.3,144.3,208.9,140.9,220z M134.5,236.8c-0.3,0.7-0.9,1.3-1.5,1.7c-0.7,0.4-1.4,0.6-2.2,0.6H52.2
						c-0.8,0-1.5-0.2-2.2-0.6c-0.7-0.4-1.2-1-1.5-1.7c-1.7-3.5-3.2-7.1-4.5-10.8H139C137.7,229.7,136.1,233.3,134.5,236.8z
						 M70.2,94.6c-0.5,5.4-0.7,10.9-0.7,16.6c0,5.2,0.2,10.2,0.6,15.1H51.8c-3.4-14.9-11.8-46.8-25.6-65.7
						C38.4,66,57.3,76.6,70.2,94.6z M56.3,43.3c6.5,6.1,12.7,15.3,17.9,26.2c-1.3,5.4-2.4,10.9-3.1,16.5C65.8,79.6,59.7,73.9,53,69
						C52.9,59.2,54,50.4,56.3,43.3z M91.5,43.1c10,15.2,16.1,40.7,16.1,68c0,5.1-0.2,10.2-0.6,15.1H76.1c-0.4-5-0.6-10-0.6-15.1
						C75.5,83.8,81.5,58.3,91.5,43.1z M126.7,43.3c2.4,7.3,3.5,16.4,3.4,26.4c-6.7,5-12.7,10.8-18,17.3c-0.8-5.9-1.8-11.7-3.3-17.5
						C114,58.6,120.2,49.4,126.7,43.3z M171.5,51.8c-0.3-0.6-0.8-1.1-1.5-1.4c-0.6-0.3-1.4-0.3-2-0.2c-11.3,3.5-22.1,8.6-31.9,15.2
						c-0.2-11-2-20.7-5.4-28.4c-0.2-0.4-0.5-0.8-0.8-1.1c-0.3-0.3-0.8-0.5-1.2-0.6c-0.4-0.1-0.9-0.1-1.4,0c-0.4,0.1-0.9,0.3-1.2,0.6
						c-7.2,5.6-14,14.3-19.8,25c-3.2-9.9-7.4-18.4-12.5-24.9c-0.3-0.4-0.6-0.7-1.1-0.9c-0.4-0.2-0.9-0.3-1.3-0.3s-0.9,0.1-1.3,0.3
						c-0.4,0.2-0.8,0.5-1.1,0.9c-5,6.5-9.2,15-12.5,24.9c-5.8-10.8-12.6-19.5-19.8-25c-0.4-0.3-0.8-0.5-1.2-0.6
						c-0.4-0.1-0.9-0.1-1.4,0c-0.4,0.1-0.9,0.3-1.2,0.6s-0.6,0.7-0.8,1.1c-3.3,7.5-5.1,17-5.3,27.8c-9.6-6.3-20-11.2-31-14.6
						c-0.7-0.2-1.4-0.1-2,0.2c-0.6,0.3-1.2,0.8-1.5,1.4c-0.3,0.6-0.4,1.3-0.2,2c0.2,0.7,0.6,1.3,1.1,1.7
						c17.4,13.1,28.3,53.4,32.4,71.2l-0.6,1.1c-8.9,17.2-13.8,36.2-14.1,55.5c-0.4,19.3,3.8,38.5,12.1,56c0.8,1.7,2.1,3.1,3.7,4.1
						c1.6,1,3.5,1.5,5.4,1.5h78.6c1.9,0,3.8-0.5,5.4-1.5s2.9-2.4,3.7-4.1c8.3-17.4,12.4-36.6,12.1-55.9c-0.3-19.3-5.1-38.3-14-55.4
						c3.8-17,14.9-59.1,32.7-72.6c0.6-0.4,1-1,1.1-1.7C171.9,53.2,171.9,52.4,171.5,51.8z"/>
				</defs>
				<clipPath id="SVGID_00000155115138584370371310000007425513661077528247_">
					<use xlink:href="#SVGID_00000042706560907737391810000003880867091220111536_"  style="overflow:visible;"/>
				</clipPath>
				<path style="clip-path:url(#SVGID_00000155115138584370371310000007425513661077528247_);fill:#F8F8F8;" d="M156.5,59.7
					c-7,9.6-12.6,22.5-16.9,34.8c-4.3,12.3-7.2,24-8.9,31.5l2.9,0.7c1.7-7.4,4.6-19,8.8-31.2c4.2-12.2,9.7-24.7,16.5-34L156.5,59.7z
					 M114.8,95.8c12.6-17.8,31.4-28.4,43.5-33.8l-1.2-2.7c-12.4,5.5-31.7,16.4-44.7,34.8L114.8,95.8z M115.1,126.3V94.9h-3v31.4
					H115.1z M132.2,124.8h-18.6v3h18.6V124.8z M144.4,185.7c0,11.5-1.7,22.9-5,33.9l2.9,0.9c3.4-11.3,5.1-23,5.1-34.8L144.4,185.7z
					 M132,133c8.2,16.4,12.5,34.4,12.4,52.7l3,0c0-18.8-4.3-37.3-12.8-54.1L132,133z M49.7,133.8h83.7v-3H49.7V133.8z M38.6,185.7
					c0-18.3,4.2-36.4,12.4-52.7l-2.7-1.3c-8.4,16.8-12.8,35.3-12.8,54.1L38.6,185.7z M43.5,219.6c-3.3-11-5-22.4-5-33.9l-3,0
					c0,11.8,1.7,23.5,5.1,34.8L43.5,219.6z M42.5,218.5c-0.2,0-0.5,0-0.7,0.1l0.6,2.9c0.1,0,0.1,0,0.2,0L42.5,218.5z M140.4,218.5
					H42.5v3h97.9V218.5z M141.2,218.6c-0.3-0.1-0.5-0.1-0.8-0.1l0,3c0.1,0,0.2,0,0.2,0L141.2,218.6z M137.6,225.5
					c-1.3,3.6-2.8,7.2-4.4,10.7l2.7,1.3c1.7-3.6,3.2-7.2,4.6-11L137.6,225.5z M44,227.5H139v-3H44V227.5z M49.9,236.1
					c-1.7-3.5-3.1-7-4.4-10.7l-2.8,1c1.3,3.7,2.9,7.4,4.6,11L49.9,236.1z M50.8,237.2c-0.4-0.3-0.7-0.6-1-1.1l-2.7,1.3
					c0.5,0.9,1.2,1.7,2.1,2.3L50.8,237.2z M52.2,237.6c-0.5,0-1-0.1-1.4-0.4l-1.6,2.6c0.9,0.6,1.9,0.8,3,0.8L52.2,237.6z
					 M130.8,237.6H52.2v3h78.6V237.6z M132.2,237.2c-0.4,0.3-0.9,0.4-1.4,0.4l0,3c1,0,2.1-0.3,3-0.8L132.2,237.2z M133.1,236.1
					c-0.2,0.4-0.5,0.8-1,1.1l1.6,2.6c0.9-0.6,1.6-1.3,2.1-2.3L133.1,236.1z M25.7,61.9c12.1,5.3,30.6,15.8,43.3,33.5l2.4-1.7
					C58.3,75.4,39.2,64.6,26.9,59.2L25.7,61.9z M53.3,126c-1.7-7.5-4.6-19.2-8.9-31.5c-4.3-12.3-9.9-25.1-16.9-34.8l-2.4,1.8
					c6.8,9.3,12.3,21.8,16.5,34c4.2,12.1,7.1,23.8,8.8,31.2L53.3,126z M70.1,124.8H51.8v3h18.2V124.8z M67.9,111.1
					c0,5.2,0.2,10.3,0.6,15.3l3-0.2c-0.4-4.9-0.6-9.9-0.6-15H67.9z M68.7,94.4c-0.5,5.4-0.7,11-0.7,16.7h3c0-5.6,0.2-11.1,0.7-16.4
					L68.7,94.4z M54.5,69c-0.1-9.6,1-18.3,3.3-25.2l-2.8-0.9c-2.4,7.3-3.5,16.3-3.4,26.2L54.5,69z M72.3,85
					c-5.4-6.5-11.6-12.3-18.4-17.2l-1.8,2.4C58.7,75,64.7,80.7,70,86.9L72.3,85z M72.8,69.2c-1.4,5.5-2.4,11-3.2,16.6l3,0.4
					c0.7-5.5,1.8-10.9,3.1-16.3L72.8,69.2z M55.3,44.4c6.4,5.9,12.4,14.9,17.6,25.7l2.7-1.3c-5.2-11-11.5-20.4-18.2-26.6L55.3,44.4z
					 M77,111.1C77,84,83,58.8,92.8,43.9l-2.5-1.6C80.1,57.8,74,83.6,74,111.1H77z M77.6,126.2c-0.4-4.9-0.6-9.9-0.6-15h-3
					c0,5.2,0.2,10.3,0.6,15.3L77.6,126.2z M106.9,124.8H76.1v3h30.8V124.8z M106.1,111.1c0,5.1-0.2,10.1-0.6,15l3,0.3
					c0.4-5,0.6-10.1,0.6-15.3H106.1z M90.3,43.9c9.8,14.8,15.8,40,15.8,67.2h3c0-27.5-6.1-53.4-16.3-68.9L90.3,43.9z M110.1,70.2
					c5.1-10.8,11.2-19.8,17.6-25.7l-2-2.2c-6.7,6.3-13,15.6-18.2,26.6L110.1,70.2z M113.5,86.8c-0.8-5.9-1.9-11.8-3.3-17.6l-2.9,0.7
					c1.4,5.7,2.5,11.5,3.2,17.3L113.5,86.8z M129.1,68.5c-6.8,5.1-12.9,11-18.3,17.5l2.3,1.9c5.2-6.4,11.1-12.1,17.7-17L129.1,68.5z
					 M125.3,43.8c2.3,7.1,3.4,16,3.3,25.9l3,0c0.2-10.1-1-19.4-3.4-26.9L125.3,43.8z M173.2,54.2c0.2-1,0.1-2.1-0.3-3l-2.7,1.3
					c0.2,0.3,0.2,0.7,0.1,1L173.2,54.2z M171.6,56.7c0.8-0.6,1.4-1.5,1.7-2.6l-2.9-0.7c-0.1,0.3-0.3,0.6-0.6,0.9L171.6,56.7z
					 M139.4,128.4c1.9-8.5,5.6-23.2,11.1-37.4c2.7-7.1,5.9-14.1,9.4-20.1c3.6-6,7.5-11,11.7-14.2l-1.8-2.4
					c-4.7,3.5-8.8,8.9-12.5,15.1c-3.7,6.2-6.9,13.3-9.6,20.5c-5.5,14.4-9.3,29.3-11.2,37.8L139.4,128.4z M153.4,183.5
					c-0.3-19.5-5.2-38.7-14.2-56.1l-2.7,1.4c8.8,16.9,13.5,35.7,13.8,54.8L153.4,183.5z M141.2,240c8.4-17.7,12.5-37,12.2-56.5
					l-3,0.1c0.3,19.1-3.7,38-11.9,55.2L141.2,240z M136.9,244.8c1.8-1.2,3.3-2.8,4.3-4.8l-2.7-1.3c-0.7,1.5-1.8,2.7-3.2,3.5
					L136.9,244.8z M130.8,246.6c2.2,0,4.3-0.6,6.2-1.8l-1.6-2.5c-1.4,0.9-3,1.3-4.6,1.3L130.8,246.6z M52.2,246.6h78.6v-3H52.2
					V246.6z M46.1,244.8c1.8,1.2,4,1.8,6.2,1.8l0-3c-1.6,0-3.2-0.5-4.6-1.3L46.1,244.8z M41.8,240.1c1,2,2.4,3.6,4.3,4.8l1.6-2.5
					c-1.4-0.9-2.5-2.1-3.2-3.5L41.8,240.1z M29.6,183.4c-0.4,19.6,3.8,39,12.2,56.7l2.7-1.3c-8.2-17.3-12.3-36.2-11.9-55.3
					L29.6,183.4z M43.8,127.2c-9,17.4-13.9,36.6-14.3,56.2l3,0.1c0.4-19.1,5.1-37.9,13.9-54.9L43.8,127.2z M44.4,126.1l-0.6,1.1
					l2.7,1.4l0.6-1.1L44.4,126.1z M12.4,56.7C20.8,63,27.7,76,33.1,90c5.4,13.8,9.1,28.3,11.2,37.2l2.9-0.7
					c-2.1-8.9-5.8-23.5-11.3-37.6c-5.4-14-12.6-27.7-21.7-34.5L12.4,56.7z M10.8,54.2c0.2,1,0.8,1.9,1.7,2.6l1.8-2.4
					c-0.3-0.2-0.5-0.5-0.6-0.9L10.8,54.2z M11.1,51.1c-0.5,0.9-0.6,2-0.3,3l2.9-0.7c-0.1-0.3,0-0.7,0.1-1L11.1,51.1z M13.3,49
					c-1,0.4-1.7,1.2-2.2,2.1l2.7,1.3c0.2-0.3,0.4-0.6,0.7-0.7L13.3,49z M16.4,48.8c-1-0.3-2.1-0.2-3,0.2l1.2,2.7
					c0.3-0.1,0.7-0.2,1-0.1L16.4,48.8z M47.8,63.6c-9.7-6.3-20.3-11.3-31.4-14.8l-0.9,2.9c10.8,3.4,21.1,8.2,30.6,14.4L47.8,63.6z
					 M50.9,36.5c-3.4,7.7-5.2,17.5-5.5,28.3l3,0.1c0.3-10.6,2-19.9,5.2-27.2L50.9,36.5z M52.1,34.8c-0.5,0.4-0.9,1-1.2,1.6l2.7,1.2
					c0.1-0.2,0.2-0.4,0.4-0.5L52.1,34.8z M53.9,33.9c-0.7,0.2-1.3,0.5-1.8,0.9l1.9,2.3c0.2-0.1,0.4-0.3,0.6-0.3L53.9,33.9z M56,33.9
					c-0.7-0.1-1.4-0.1-2,0l0.7,2.9c0.2-0.1,0.5-0.1,0.7,0L56,33.9z M57.8,34.7c-0.5-0.4-1.2-0.7-1.8-0.8l-0.6,2.9
					c0.2,0,0.4,0.1,0.6,0.3L57.8,34.7z M78,60.2c-5.9-10.9-12.8-19.8-20.2-25.5L56,37.1c7,5.4,13.7,13.9,19.4,24.6L78,60.2z
					 M88,35.2c-5.2,6.6-9.5,15.3-12.7,25.3l2.9,0.9c3.2-9.8,7.3-18.1,12.2-24.4L88,35.2z M89.5,33.9c-0.6,0.3-1.2,0.7-1.6,1.3
					l2.4,1.8c0.1-0.2,0.3-0.3,0.5-0.4L89.5,33.9z M91.5,33.4c-0.7,0-1.4,0.2-2,0.5l1.3,2.7c0.2-0.1,0.4-0.2,0.7-0.2V33.4z
					 M93.5,33.9c-0.6-0.3-1.3-0.5-2-0.5v3c0.2,0,0.5,0.1,0.7,0.2L93.5,33.9z M95.1,35.2c-0.4-0.5-1-1-1.6-1.3l-1.3,2.7
					c0.2,0.1,0.4,0.2,0.5,0.4L95.1,35.2z M107.8,60.5c-3.3-10-7.5-18.7-12.7-25.3L92.7,37c4.9,6.3,9,14.6,12.2,24.4L107.8,60.5z
					 M125.2,34.7c-7.4,5.8-14.3,14.6-20.2,25.5l2.6,1.4c5.7-10.7,12.4-19.2,19.4-24.6L125.2,34.7z M127.1,33.9
					c-0.7,0.1-1.3,0.4-1.8,0.8l1.8,2.4c0.2-0.1,0.4-0.2,0.6-0.3L127.1,33.9z M129.1,33.9c-0.7-0.2-1.4-0.2-2,0l0.6,2.9
					c0.2,0,0.5,0,0.7,0L129.1,33.9z M130.9,34.8c-0.5-0.4-1.1-0.8-1.8-0.9l-0.7,2.9c0.2,0.1,0.4,0.2,0.6,0.3L130.9,34.8z
					 M132.1,36.5c-0.3-0.6-0.7-1.2-1.2-1.6l-1.9,2.3c0.2,0.1,0.3,0.3,0.4,0.5L132.1,36.5z M137.6,65.4c-0.2-11.1-2-21.1-5.5-28.9
					l-2.7,1.2c3.2,7.4,5,17,5.2,27.8L137.6,65.4z M167.6,48.8c-11.5,3.6-22.3,8.7-32.3,15.4l1.7,2.5c9.8-6.5,20.4-11.5,31.6-15
					L167.6,48.8z M170.7,49c-1-0.4-2-0.5-3-0.2l0.8,2.9c0.3-0.1,0.7-0.1,1,0.1L170.7,49z M172.9,51.1c-0.5-0.9-1.2-1.7-2.2-2.1
					l-1.2,2.7c0.3,0.1,0.6,0.4,0.7,0.7L172.9,51.1z M157.7,60.6l1.2,0.9l3.3-4.5l-5.1,2.3L157.7,60.6z M113.6,94.9l-1.2-0.9
					l-0.3,0.4v0.5H113.6z M113.6,126.3h-1.5v1.5h1.5V126.3z M132.2,126.3v1.5h1.2l0.3-1.2L132.2,126.3z M145.9,185.7l-1.5,0v0
					L145.9,185.7z M133.3,132.3l1.3-0.7l-0.4-0.8h-0.9V132.3z M49.7,132.3v-1.5h-0.9l-0.4,0.8L49.7,132.3z M37.1,185.7l1.5,0l0,0
					L37.1,185.7z M42.1,220l-1.4,0.4l0.4,1.3l1.3-0.3L42.1,220z M42.5,220v-1.5h0l0,0L42.5,220z M140.4,220l0-1.5h0V220z M140.9,220
					l-0.3,1.5l1.3,0.3l0.4-1.3L140.9,220z M139,226l1.4,0.5l0.7-2H139V226z M44,226v-1.5h-2.1l0.7,2L44,226z M48.5,236.8l-1.4,0.6
					l0,0l0,0L48.5,236.8z M52.2,239.1v-1.5l0,0L52.2,239.1z M130.8,239.1l0-1.5h0V239.1z M134.5,236.8l1.3,0.7l0,0l0,0L134.5,236.8z
					 M26.3,60.6l0.6-1.4l-5.1-2.3l3.3,4.5L26.3,60.6z M51.8,126.3l-1.5,0.3l0.3,1.2h1.2V126.3z M70.1,126.3v1.5h1.6l-0.1-1.6
					L70.1,126.3z M70.2,94.6l1.5,0.1l0-0.6l-0.3-0.5L70.2,94.6z M53,69l-1.5,0l0,0.8l0.6,0.4L53,69z M71.1,86l-1.2,1l2.2,2.6
					l0.5-3.4L71.1,86z M74.2,69.5l1.5,0.4l0.1-0.5l-0.2-0.5L74.2,69.5z M56.3,43.3l1-1.1l-1.7-1.6l-0.7,2.2L56.3,43.3z M76.1,126.3
					l-1.5,0.1l0.1,1.4h1.4V126.3z M106.9,126.3v1.5h1.4l0.1-1.4L106.9,126.3z M91.5,43.1l1.3-0.8l-1.3-1.9l-1.3,1.9L91.5,43.1z
					 M108.8,69.5l-1.4-0.6l-0.2,0.5l0.1,0.5L108.8,69.5z M112.1,87l-1.5,0.2l0.4,3.5l2.2-2.7L112.1,87z M130,69.7l0.9,1.2l0.6-0.4
					l0-0.7L130,69.7z M126.7,43.3l1.4-0.5l-0.7-2.2l-1.7,1.6L126.7,43.3z M170.7,55.5l0.9,1.2l0,0L170.7,55.5z M137.9,128.1
					l-1.5-0.3l-0.1,0.5l0.3,0.5L137.9,128.1z M139.9,239.4l1.3,0.7l0,0l0,0L139.9,239.4z M130.8,245.1v1.5h0L130.8,245.1z
					 M52.2,245.1l0,1.5h0V245.1z M43.1,239.4l-1.4,0.6l0,0l0,0L43.1,239.4z M45.2,127.9l-1.3-0.7l0,0L45.2,127.9z M45.8,126.8
					l1.3,0.7l0.3-0.5l-0.1-0.5L45.8,126.8z M13.3,55.5l0.9-1.2l0,0L13.3,55.5z M16,50.2l0.4-1.4l0,0l0,0L16,50.2z M47,64.8l-0.8,1.3
					l2.2,1.5l0.1-2.7L47,64.8z M52.3,37.1l1.4,0.6l0,0L52.3,37.1z M56.9,35.9L56,37.1l0,0L56.9,35.9z M76.7,60.9l-1.3,0.7l1.7,3.1
					l1.1-3.3L76.7,60.9z M89.1,36.1L88,35.2l0,0L89.1,36.1z M93.9,36.1l1.2-0.9l0,0L93.9,36.1z M106.3,60.9l-1.4,0.5l1.1,3.3
					l1.7-3.1L106.3,60.9z M126.1,35.9l0.9,1.2l0,0L126.1,35.9z M130.7,37.1l-1.4,0.6l0,0L130.7,37.1z M136.1,65.5l-1.5,0l0.1,2.7
					l2.3-1.5L136.1,65.5z M168,50.2l-0.4-1.4l0,0l0,0L168,50.2z M171.5,51.8l1.3-0.7l0,0L171.5,51.8z"/>
			</g>
		</g>
	</g>
</g>
</svg>
