<svg width="314" height="265" viewBox="0 0 314 265" fill="none" xmlns="http://www.w3.org/2000/svg">
<path d="M313.279 100.612C313.229 99.6312 312.854 98.6955 312.213 97.9525C311.573 97.2094 310.703 96.7013 309.742 96.5085C301.64 94.9415 293.396 94.2382 285.147 94.4104C285.033 94.4254 284.917 94.4174 284.806 94.3871C284.695 94.3567 284.591 94.3044 284.501 94.2334C284.41 94.1624 284.335 94.074 284.279 93.9734C284.223 93.8728 284.187 93.762 284.175 93.6476C284.14 93.5441 284.126 93.4346 284.134 93.3256C284.143 93.2167 284.173 93.1106 284.224 93.0138C284.274 92.917 284.344 92.8315 284.429 92.7625C284.513 92.6934 284.611 92.6424 284.716 92.6123C291.751 89.4968 299.126 87.2148 306.691 85.8127C307.288 85.7062 307.857 85.4774 308.363 85.1406C308.868 84.8038 309.298 84.3662 309.627 83.8553C309.955 83.3443 310.175 82.7709 310.272 82.1711C310.369 81.5712 310.341 80.9578 310.19 80.3691C307.279 69.0046 302.509 58.2009 296.073 48.3961C295.993 48.274 295.906 48.1551 295.815 48.0416L294.437 46.336C293.922 45.6981 293.239 45.2165 292.465 44.9453C291.692 44.6741 290.858 44.6239 290.058 44.8005C278.828 47.4106 267.995 51.5065 257.844 56.9802C257.474 57.2097 257.03 57.2897 256.602 57.2041C256.175 57.1185 255.796 56.8736 255.542 56.519C255.253 56.2106 255.093 55.8022 255.097 55.379C255.101 54.9558 255.268 54.5504 255.563 54.2472C262.01 46.2953 269.51 39.2606 277.856 33.3372C278.354 32.9909 278.775 32.5456 279.093 32.0291C279.411 31.5125 279.62 30.9358 279.706 30.335C279.791 29.7342 279.752 29.1221 279.591 28.537C279.43 27.952 279.15 27.4064 278.769 26.9345L276.954 24.6886C271.761 18.0443 265.309 12.4912 257.969 8.34731C250.629 4.20345 242.544 1.55029 234.178 0.539803C229.851 -0.017674 225.454 0.411077 221.316 1.79402C217.178 3.17696 213.406 5.47833 210.281 8.52616C207.156 11.574 204.76 15.2895 203.271 19.395C201.782 23.5004 201.238 27.8898 201.682 32.2349L202.562 42.0239C202.671 43.2276 202.517 44.4405 202.112 45.579C201.706 46.7174 201.059 47.7543 200.215 48.618C199.37 49.4818 198.349 50.1518 197.221 50.582C196.093 51.0122 194.885 51.1922 193.681 51.1097L183.886 50.4395C179.538 50.0893 175.167 50.7276 171.099 52.3067C167.032 53.8857 163.374 56.3646 160.398 59.5582C157.422 62.7518 155.205 66.5775 153.913 70.7494C152.621 74.9213 152.288 79.3315 152.938 83.6505C154.124 91.9931 156.941 100.02 161.228 107.271C165.515 114.522 171.188 120.856 177.923 125.91L180.256 127.716C180.79 128.123 181.409 128.402 182.066 128.533C178.682 164.891 177.88 211.687 179.672 268.33H152.615C157.241 223.059 155.276 191.08 150.255 168.491C154.493 159.293 156.461 149.209 155.992 139.09C155.836 134.725 154.697 130.452 152.659 126.59C150.622 122.728 147.739 119.376 144.226 116.787C140.713 114.197 136.661 112.435 132.373 111.634C128.084 110.832 123.67 111.011 119.461 112.158L109.958 114.623C108.79 114.926 107.569 114.972 106.382 114.757C105.194 114.542 104.066 114.072 103.078 113.379C102.089 112.685 101.262 111.786 100.654 110.742C100.046 109.698 99.6719 108.534 99.5567 107.331L98.6202 97.5467C98.2564 93.1941 96.9149 88.9801 94.6958 85.2195C92.4768 81.459 89.4375 78.2492 85.8053 75.83C82.173 73.4108 78.0417 71.8447 73.7199 71.2489C69.3982 70.653 64.9978 71.0428 60.8477 72.389C52.8203 74.9204 45.3703 79.0117 38.9238 84.4287C32.4774 89.8458 27.161 96.4823 23.2789 103.959L21.8783 106.558C21.5904 107.092 21.4157 107.68 21.365 108.285C21.3143 108.889 21.3886 109.498 21.5834 110.073C21.7782 110.648 22.0893 111.176 22.4972 111.625C22.9051 112.074 23.401 112.434 23.9541 112.683C33.2465 116.965 41.9127 122.496 49.7135 129.121C50.0592 129.365 50.2977 129.733 50.3793 130.148C50.4608 130.564 50.3792 130.994 50.1514 131.351C49.9676 131.747 49.6403 132.058 49.2358 132.221C48.8314 132.384 48.3801 132.387 47.9737 132.229C36.9897 128.722 25.5883 126.694 14.0698 126.2C13.2515 126.179 12.4431 126.384 11.7336 126.793C11.024 127.202 10.4408 127.799 10.0479 128.518L9.00811 130.448C8.9388 130.577 8.87603 130.709 8.82005 130.844C4.29855 141.668 1.59798 153.167 0.827859 164.874C0.788042 165.48 0.87368 166.088 1.07941 166.66C1.28514 167.232 1.60652 167.755 2.02346 168.197C2.4404 168.638 2.9439 168.989 3.50245 169.227C4.061 169.465 4.66257 169.584 5.26951 169.579C12.9622 169.564 20.6304 170.447 28.1191 172.208C28.2278 172.218 28.3333 172.251 28.4292 172.303C28.5251 172.355 28.6094 172.426 28.677 172.512C28.7446 172.598 28.794 172.697 28.8223 172.802C28.8506 172.908 28.8572 173.018 28.8416 173.126C28.8507 173.241 28.8367 173.357 28.8003 173.466C28.764 173.576 28.7062 173.676 28.6302 173.763C28.5542 173.85 28.4616 173.92 28.358 173.97C28.2543 174.02 28.1416 174.049 28.0267 174.055C19.8875 175.41 11.914 177.623 4.23875 180.654C3.32941 181.021 2.56813 181.681 2.07523 182.53C1.58233 183.378 1.3859 184.367 1.517 185.34C1.9776 188.757 2.58313 192.057 3.31666 195.147L11.5218 229.685C12.1784 232.444 13.744 234.902 15.9662 236.661C18.1883 238.42 20.9375 239.378 23.7702 239.381C24.2586 239.381 24.7465 239.353 25.2316 239.297L60.4537 235.203C63.6038 234.837 66.908 234.278 70.2733 233.543C71.2312 233.333 72.0921 232.81 72.7199 232.056C73.3478 231.302 73.7068 230.36 73.7401 229.379C73.9607 221.121 73.3099 212.863 71.7984 204.741C71.7645 204.631 71.753 204.516 71.7645 204.401C71.7761 204.286 71.8105 204.175 71.8658 204.074C71.921 203.973 71.9959 203.884 72.0861 203.812C72.1763 203.741 72.2799 203.688 72.3908 203.657C72.487 203.606 72.5928 203.574 72.7016 203.565C72.8104 203.555 72.92 203.568 73.0238 203.602C73.1275 203.636 73.2232 203.691 73.3051 203.764C73.3869 203.836 73.4532 203.924 73.4999 204.023C77.7169 210.465 81.1681 217.378 83.7833 224.622C83.9855 225.195 84.3037 225.72 84.718 226.164C85.1322 226.608 85.6335 226.962 86.1906 227.203C86.7476 227.444 87.3484 227.567 87.9554 227.566C88.5623 227.564 89.1623 227.436 89.7178 227.191C100.442 222.463 110.311 215.989 118.924 208.033C119.031 207.934 119.134 207.83 119.231 207.72L120.687 206.081C121.232 205.468 121.595 204.715 121.736 203.907C121.877 203.099 121.791 202.267 121.486 201.506C117.083 190.838 111.281 180.804 104.233 171.669C103.946 171.341 103.795 170.915 103.809 170.479C103.824 170.043 104.003 169.629 104.312 169.32C104.568 168.984 104.945 168.76 105.362 168.694C105.78 168.629 106.207 168.728 106.554 168.97C115.441 174.042 123.596 180.304 130.793 187.583C131.215 188.018 131.722 188.361 132.283 188.592C132.844 188.822 133.446 188.934 134.052 188.921C134.659 188.907 135.255 188.769 135.806 188.515C136.356 188.26 136.848 187.895 137.251 187.441L139.169 185.283C140.736 183.563 142.209 181.76 143.581 179.881C147.007 200.921 147.853 229.502 143.782 268.33H88.6078C87.9461 268.33 87.2929 268.479 86.6965 268.766C86.1002 269.053 85.576 269.471 85.1628 269.989C84.7496 270.506 84.458 271.11 84.3096 271.756C84.1612 272.401 84.1599 273.072 84.3056 273.718L109.644 386.088C110.898 391.762 114.054 396.835 118.588 400.463C123.121 404.092 128.759 406.057 134.563 406.032H195.323C201.127 406.057 206.765 404.092 211.298 400.463C215.832 396.835 218.988 391.761 220.242 386.087L245.581 273.718C245.727 273.071 245.725 272.401 245.577 271.755C245.429 271.109 245.137 270.505 244.724 269.988C244.311 269.47 243.786 269.053 243.19 268.766C242.594 268.479 241.94 268.33 241.279 268.33H188.499C186.3 199.028 188.228 151.781 191.824 119.58C196.404 113.899 201.493 108.65 207.028 103.898C207.325 103.597 207.726 103.422 208.149 103.409C208.571 103.396 208.982 103.547 209.296 103.83C209.656 104.076 209.909 104.45 210.004 104.876C210.098 105.302 210.028 105.748 209.807 106.124C204.559 116.402 200.703 127.335 198.339 138.633C198.179 139.438 198.247 140.271 198.535 141.039C198.822 141.808 199.318 142.481 199.966 142.983L201.699 144.325C201.815 144.414 201.934 144.497 202.058 144.575C211.987 150.806 222.878 155.348 234.29 158.018C234.881 158.156 235.494 158.17 236.091 158.06C236.687 157.95 237.255 157.718 237.758 157.378C238.261 157.038 238.689 156.598 239.014 156.085C239.34 155.572 239.556 154.997 239.649 154.397C240.887 146.795 243.007 139.364 245.967 132.255C245.995 132.149 246.043 132.05 246.111 131.964C246.178 131.878 246.262 131.807 246.357 131.754C246.453 131.701 246.558 131.668 246.666 131.657C246.775 131.647 246.885 131.658 246.989 131.691C247.103 131.7 247.215 131.733 247.317 131.787C247.419 131.84 247.509 131.914 247.582 132.003C247.655 132.092 247.709 132.195 247.742 132.306C247.774 132.416 247.784 132.532 247.771 132.647C247.78 140.908 248.66 149.145 250.397 157.221C250.61 158.179 251.136 159.038 251.892 159.664C252.648 160.289 253.59 160.644 254.57 160.674C255.656 160.706 256.731 160.722 257.796 160.722C260.106 160.722 262.36 160.646 264.528 160.495L299.9 158.02C302.977 157.804 305.868 156.465 308.025 154.258C310.183 152.051 311.457 149.128 311.607 146.044L313.315 110.584C313.468 107.41 313.456 104.055 313.279 100.612ZM133.741 178.104C126.815 171.67 119.182 166.045 110.988 161.335C108.882 160.056 106.39 159.567 103.958 159.957C101.525 160.347 99.3102 161.59 97.7088 163.465C96.0574 165.305 95.1023 167.667 95.0094 170.14C94.9166 172.612 95.6918 175.039 97.2006 176.999C103.185 184.775 108.227 193.236 112.22 202.202C105.647 208.153 98.2929 213.178 90.3622 217.138C87.7611 210.892 84.5962 204.898 80.9067 199.228C79.6797 197.331 77.8336 195.918 75.683 195.231C73.5324 194.544 71.2103 194.624 69.1124 195.459C67.0144 196.293 65.2704 197.831 64.1774 199.808C63.0845 201.786 62.7102 204.082 63.1184 206.305C64.2919 212.671 64.9134 219.127 64.976 225.6C63.0834 225.944 61.2302 226.223 59.4362 226.431L24.215 230.524C23.2958 230.631 22.3693 230.397 21.6113 229.865C20.8532 229.334 20.3164 228.542 20.1026 227.641L11.8975 193.104C11.4798 191.345 11.107 189.506 10.7835 187.608C16.8802 185.452 23.1517 183.829 29.5279 182.756C31.7539 182.38 33.7807 181.242 35.263 179.538C36.7453 177.833 37.5915 175.667 37.6574 173.407C37.7233 171.148 37.0048 168.936 35.6243 167.148C34.2438 165.359 32.2868 164.105 30.0865 163.6C23.5036 162.067 16.7948 161.14 10.0435 160.829C11.0475 152.013 13.2484 143.376 16.5853 135.156C26.3661 135.847 36.0305 137.697 45.3761 140.667C47.7311 141.417 50.2741 141.317 52.563 140.384C54.8519 139.451 56.742 137.745 57.9046 135.562C59.1165 133.414 59.5261 130.904 59.0603 128.482C58.5944 126.06 57.2835 123.882 55.3617 122.339C48.1388 116.24 40.248 110.983 31.8407 106.667C38.6875 94.3249 49.9968 85.0785 63.4434 80.8285C66.3421 79.868 69.4211 79.5802 72.4474 79.9868C75.4736 80.3935 78.3678 81.484 80.911 83.1758C83.4542 84.8676 85.5798 87.1164 87.1268 89.7521C88.6739 92.3877 89.6019 95.3412 89.8407 98.3889L90.7772 108.173C91.1214 111.734 92.5695 115.098 94.9186 117.794C94.5225 118.074 94.176 118.419 93.8933 118.814L42.9069 191.718C42.5694 192.193 42.3291 192.73 42.1998 193.298C42.0705 193.866 42.0548 194.454 42.1537 195.028C42.2525 195.603 42.4639 196.152 42.7757 196.644C43.0874 197.136 43.4934 197.561 43.9701 197.895C44.4469 198.23 44.985 198.466 45.5534 198.591C46.1219 198.716 46.7094 198.727 47.2822 198.624C47.855 198.521 48.4016 198.305 48.8907 197.989C49.3797 197.673 49.8014 197.263 50.1316 196.783L101.118 123.879C101.392 123.478 101.597 123.034 101.725 122.565C105.058 123.854 108.711 124.066 112.171 123.171L121.674 120.705C124.616 119.888 127.705 119.751 130.708 120.305C133.711 120.859 136.548 122.09 139.006 123.904C141.463 125.718 143.477 128.068 144.893 130.776C146.31 133.484 147.093 136.479 147.183 139.534C147.791 153.639 142.98 167.44 133.741 178.104ZM211.637 384.142C210.816 387.857 208.75 391.179 205.782 393.554C202.814 395.93 199.123 397.217 195.323 397.201H134.563C130.763 397.217 127.072 395.93 124.103 393.554C121.135 391.179 119.069 387.857 118.248 384.142L94.1244 277.16H235.762L211.637 384.142ZM304.505 110.158L302.797 145.618C302.752 146.543 302.37 147.42 301.722 148.082C301.075 148.744 300.208 149.145 299.285 149.21L263.914 151.685C262.111 151.811 260.238 151.879 258.315 151.889C257.185 145.515 256.608 139.055 256.591 132.582C256.593 130.311 255.802 128.111 254.353 126.364C252.904 124.617 250.89 123.434 248.66 123.019C248.034 122.898 247.398 122.836 246.76 122.836C244.832 122.835 242.948 123.413 241.351 124.495C239.754 125.578 238.518 127.115 237.803 128.908C235.22 135.161 233.213 141.637 231.806 148.255C223.282 145.826 215.13 142.244 207.574 137.608C209.849 128.059 213.248 118.813 217.699 110.066C218.821 107.861 219.136 105.333 218.59 102.92C218.044 100.507 216.671 98.3617 214.709 96.8572C212.79 95.3098 210.384 94.4961 207.921 94.5615C205.458 94.6269 203.099 95.5671 201.264 97.2141C194.077 103.354 187.61 110.292 181.986 117.894C170.941 109.119 163.673 96.4394 161.677 82.4637C161.203 79.4435 161.421 76.355 162.315 73.4318C163.21 70.5086 164.756 67.8274 166.838 65.5909C168.92 63.3545 171.483 61.6214 174.332 60.5229C177.182 59.4243 180.243 58.9891 183.286 59.2502L193.08 59.9204C196.645 60.1608 200.196 59.2788 203.235 57.3978C203.448 57.8349 203.731 58.2336 204.074 58.5775L267.604 120.828C268.44 121.647 269.566 122.1 270.736 122.087C271.905 122.075 273.022 121.597 273.84 120.761C274.658 119.924 275.111 118.795 275.098 117.624C275.085 116.453 274.609 115.336 273.773 114.516L210.243 52.2658C209.892 51.93 209.488 51.6549 209.047 51.4521C210.86 48.369 211.665 44.7954 211.348 41.2318L210.467 31.4429C210.141 28.4033 210.51 25.3293 211.545 22.4534C212.581 19.5775 214.256 16.9751 216.445 14.8432C218.633 12.7112 221.277 11.1055 224.177 10.1475C227.076 9.18959 230.155 8.90449 233.181 9.31381C247.178 11.0135 259.994 18.015 268.996 28.8801C261.527 34.673 254.739 41.2961 248.763 48.6223C247.158 50.494 246.27 52.876 246.258 55.3426C246.246 57.8092 247.11 60.1999 248.696 62.0874C250.241 64.0188 252.413 65.3472 254.834 65.842C257.255 66.3367 259.773 65.9664 261.95 64.7955C270.589 60.1518 279.748 56.5506 289.234 54.0675C294.026 61.5309 297.779 69.614 300.389 78.0932C293.81 79.6444 287.387 81.7936 281.199 84.514C279.129 85.4167 277.436 87.0101 276.408 89.0225C275.38 91.0349 275.081 93.342 275.561 95.5505C276.042 97.759 277.272 99.7324 279.043 101.134C280.814 102.536 283.016 103.28 285.273 103.24C291.737 103.117 298.2 103.556 304.589 104.55C304.62 106.475 304.592 108.351 304.505 110.158Z" fill="#40715B"/>
</svg>
